<?xml version="1.0" encoding="UTF-8" standalone="no"?>
<svg width="10px" height="16px" viewBox="0 0 10 16" version="1.1" xmlns="http://www.w3.org/2000/svg" xmlns:xlink="http://www.w3.org/1999/xlink" xmlns:sketch="http://www.bohemiancoding.com/sketch/ns">
    <!-- Generator: Sketch 3.4.4 (17249) - http://www.bohemiancoding.com/sketch -->
    <title>fb</title>
    <desc>Created with Sketch.</desc>
    <defs></defs>
    <g id="Lingua" stroke="none" stroke-width="1" fill="none" fill-rule="evenodd" sketch:type="MSPage">
        <g id="Library" sketch:type="MSArtboardGroup" transform="translate(-1014.000000, -791.000000)" fill="#fff">
            <g id="follow" sketch:type="MSLayerGroup" transform="translate(923.000000, 710.000000)">
                <path d="M100.623429,81.0033291 L98.2248841,81 C95.5302007,81 93.7887779,82.5455198 93.7887779,84.9376216 L93.7887779,86.7531288 L91.3771479,86.7531288 C91.1687544,86.7531288 91,86.8992749 91,87.0795439 L91,89.710007 C91,89.890276 91.1689469,90.0362556 91.3771479,90.0362556 L93.7887779,90.0362556 L93.7887779,96.6737513 C93.7887779,96.8540204 93.9575324,97 94.1659258,97 L97.312417,97 C97.5208105,97 97.6895649,96.8538539 97.6895649,96.6737513 L97.6895649,90.0362556 L100.509323,90.0362556 C100.717716,90.0362556 100.886471,89.890276 100.886471,89.710007 L100.887625,87.0795439 C100.887625,86.9929882 100.847794,86.9100944 100.777175,86.8488395 C100.706556,86.7875847 100.610345,86.7531288 100.510285,86.7531288 L97.6895649,86.7531288 L97.6895649,85.2141007 C97.6895649,84.4743818 97.8933403,84.0988629 99.0072736,84.0988629 L100.623045,84.0983636 C100.831246,84.0983636 101,83.9522175 101,83.7721149 L101,81.3295777 C101,81.1496416 100.831438,81.003662 100.623429,81.0033291 L100.623429,81.0033291 Z" id="fb" sketch:type="MSShapeGroup"></path>
            </g>
        </g>
    </g>
</svg>