<?xml version="1.0" encoding="UTF-8" standalone="no"?>
<svg width="19px" height="12px" viewBox="0 0 19 12" version="1.1" xmlns="http://www.w3.org/2000/svg" xmlns:xlink="http://www.w3.org/1999/xlink" xmlns:sketch="http://www.bohemiancoding.com/sketch/ns">
    <!-- Generator: Sketch 3.4.4 (17249) - http://www.bohemiancoding.com/sketch -->
    <title>gp</title>
    <desc>Created with Sketch.</desc>
    <defs></defs>
    <g id="Lingua" stroke="none" stroke-width="1" fill="none" fill-rule="evenodd" sketch:type="MSPage">
        <g id="Library" sketch:type="MSArtboardGroup" transform="translate(-1103.000000, -793.000000)" fill="#4183D7">
            <g id="follow" sketch:type="MSLayerGroup" transform="translate(923.000000, 710.000000)">
                <path d="M192.279056,88.3332733 L186.548849,88.3332733 L186.548849,90.1999491 L190.04485,90.1999491 C189.523334,91.8227917 187.972252,92.9999629 186.139496,92.9999629 C183.878941,92.9999629 182.046509,91.2090439 182.046509,88.9999523 C182.046509,86.7907654 183.879006,84.9999735 186.139496,84.9999735 C187.27784,84.9999735 188.307438,85.4542283 189.049344,86.1872223 L190.435825,84.714431 C189.328514,83.6540582 187.812304,83 186.139496,83 C182.748761,82.9999682 180,85.6862673 180,88.9999523 C180,92.3136373 182.748761,95 186.139528,95 C189.109719,95 191.710177,92.9385754 192.279089,90.1999809 L192.279089,88.3333051 L192.279056,88.3332733 Z M198.392917,86.8100695 L196.383337,86.8100695 L196.383337,84.8461538 L194.660712,84.8461538 L194.660712,86.8100695 L192.651131,86.8100695 L192.651131,88.4933868 L194.660712,88.4933868 L194.660712,90.457357 L196.383337,90.457357 L196.383337,88.4933868 L198.392917,88.4933868 L198.392917,86.8100695 Z" id="gp" sketch:type="MSShapeGroup"></path>
            </g>
        </g>
    </g>
</svg>