<?xml version="1.0" encoding="UTF-8" standalone="no"?>
<svg width="16px" height="16px" viewBox="0 0 16 16" version="1.1" xmlns="http://www.w3.org/2000/svg" xmlns:xlink="http://www.w3.org/1999/xlink" xmlns:sketch="http://www.bohemiancoding.com/sketch/ns">
    <!-- Generator: Sketch 3.4.4 (17249) - http://www.bohemiancoding.com/sketch -->
    <title>ins</title>
    <desc>Created with Sketch.</desc>
    <defs></defs>
    <g id="Lingua" stroke="none" stroke-width="1" fill="none" fill-rule="evenodd" sketch:type="MSPage">
        <g id="Library" sketch:type="MSArtboardGroup" transform="translate(-1195.000000, -791.000000)" fill="#4183D7">
            <g id="follow" sketch:type="MSLayerGroup" transform="translate(923.000000, 710.000000)">
                <path d="M274.053679,81 L285.946485,81 C287.075918,81 288,81.8361826 288,83.0534935 L288,94.9465065 C288,96.1638174 287.075918,97 285.946485,97 L274.053679,97 C272.923917,97 272,96.1638174 272,94.9465065 L272,83.0534935 C272,81.8361826 272.923917,81 274.053679,81 L274.053679,81 L274.053679,81 Z M283.65542,82.7776683 C283.259174,82.7776683 282.935376,83.1016274 282.935376,83.4980338 L282.935376,85.2221469 C282.935376,85.618389 283.259174,85.9425124 283.65542,85.9425124 L285.463827,85.9425124 C285.860074,85.9425124 286.1842,85.618389 286.1842,85.2221469 L286.1842,83.4980338 C286.1842,83.1016274 285.860074,82.7776683 285.463827,82.7776683 L283.65542,82.7776683 L283.65542,82.7776683 L283.65542,82.7776683 Z M286.191757,87.7663432 L284.783539,87.7663432 C284.916771,88.2013553 284.98889,88.6621592 284.98889,89.1388983 C284.98889,91.8002259 282.761895,93.957544 280.015278,93.957544 C277.268826,93.957544 275.042159,91.8002259 275.042159,89.1388983 C275.042159,88.6618307 275.114114,88.201191 275.24751,87.7663432 L273.778015,87.7663432 L273.778015,94.5249653 C273.778015,94.8747164 274.064193,95.1610555 274.414112,95.1610555 L285.555989,95.1610555 C285.905908,95.1610555 286.192086,94.8748806 286.192086,94.5249653 L286.192086,87.7663432 L286.191757,87.7663432 L286.191757,87.7663432 Z M280.015114,85.8516659 C278.240549,85.8516659 276.801774,87.2455773 276.801774,88.9652549 C276.801774,90.6849325 278.240549,92.0788439 280.015114,92.0788439 C281.789843,92.0788439 283.228782,90.6849325 283.228782,88.9652549 C283.228782,87.2455773 281.790008,85.8516659 280.015114,85.8516659 L280.015114,85.8516659 Z" id="ins" sketch:type="MSShapeGroup"></path>
            </g>
        </g>
    </g>
</svg>