<?xml version="1.0" encoding="UTF-8" standalone="no"?>
<svg width="12px" height="20px" viewBox="0 0 12 20" version="1.1" xmlns="http://www.w3.org/2000/svg" xmlns:xlink="http://www.w3.org/1999/xlink" xmlns:sketch="http://www.bohemiancoding.com/sketch/ns">
    <!-- Generator: Sketch 3.4.4 (17249) - http://www.bohemiancoding.com/sketch -->
    <title>ok</title>
    <desc>Created with Sketch.</desc>
    <defs></defs>
    <g id="Lingua" stroke="none" stroke-width="1" fill="none" fill-rule="evenodd" sketch:type="MSPage">
        <g id="Library" sketch:type="MSArtboardGroup" transform="translate(-1151.000000, -789.000000)" fill="#4183D7">
            <g id="follow" sketch:type="MSLayerGroup" transform="translate(923.000000, 710.000000)">
                <path d="M233.016295,93.0872116 C231.467058,92.9255065 230.070191,92.5436563 228.874252,91.6075684 C228.725858,91.4911072 228.572651,91.3788353 228.437234,91.2487591 C227.913775,90.7456302 227.861032,90.1693988 228.275236,89.5755726 C228.62958,89.0674165 229.224411,88.9314754 229.842682,89.2232566 C229.962402,89.2798115 230.07647,89.3504004 230.185724,89.4262258 C232.414558,90.958863 235.476405,91.0011744 237.71361,89.495139 C237.935259,89.3250554 238.172186,89.1863912 238.446787,89.1155929 C238.980711,88.978395 239.478635,89.1746613 239.765167,89.6421817 C240.092512,90.1761016 240.088326,90.6972443 239.685005,91.1117706 C239.066315,91.7472799 238.322254,92.2070501 237.49552,92.5279467 C236.713785,92.8312484 235.85754,92.9839465 235.010085,93.0853264 C235.137967,93.224619 235.198245,93.2931132 235.278198,93.3735468 C236.428928,94.5306177 237.584682,95.682871 238.731644,96.8435028 C239.122407,97.238968 239.204034,97.7293197 238.988874,98.1892994 C238.753621,98.6920094 238.227023,99.0227507 237.71068,98.9873515 C237.383544,98.9647296 237.128408,98.8017678 236.901736,98.5732442 C236.033351,97.6987382 235.148641,96.8403608 234.297838,95.9493073 C234.050236,95.6902022 233.931144,95.7392164 233.712635,95.9641791 C232.839018,96.8642395 231.951168,97.7504754 231.058086,98.6316842 C230.657068,99.0273589 230.179864,99.0985761 229.7148,98.8725661 C229.220434,98.6327315 228.905856,98.1277174 228.930135,97.6201897 C228.946879,97.2768807 229.115575,97.0146336 229.351037,96.7794072 C230.489837,95.6413974 231.625498,94.5004551 232.761577,93.3605601 C232.836716,93.2847347 232.906831,93.2043011 233.016295,93.0872116 Z M233.960028,89.1231336 C231.196224,89.1137077 228.929926,86.8207216 228.946042,84.0503705 C228.961949,81.2494378 231.229712,78.9922698 234.020725,79.0000199 C236.817389,79.0075605 239.062129,81.2971952 239.048106,84.1272432 C239.033873,86.8919389 236.751878,89.1327688 233.960028,89.1231336 Z M236.471835,84.0570733 C236.467021,82.681533 235.372383,81.586463 234.000632,81.5852062 C232.61737,81.58374 231.512894,82.6987089 231.523569,84.086817 C231.533824,85.4571207 232.637881,86.5444406 234.013399,86.5394135 C235.384731,86.5345959 236.476439,85.4324041 236.471835,84.0570733 L236.471835,84.0570733 Z" id="ok" sketch:type="MSShapeGroup"></path>
            </g>
        </g>
    </g>
</svg>