<?xml version="1.0" encoding="UTF-8" standalone="no"?>
<svg width="16px" height="14px" viewBox="0 0 16 14" version="1.1" xmlns="http://www.w3.org/2000/svg" xmlns:xlink="http://www.w3.org/1999/xlink" xmlns:sketch="http://www.bohemiancoding.com/sketch/ns">
    <!-- Generator: Sketch 3.4.4 (17249) - http://www.bohemiancoding.com/sketch -->
    <title>tw</title>
    <desc>Created with Sketch.</desc>
    <defs></defs>
    <g id="Lingua" stroke="none" stroke-width="1" fill="none" fill-rule="evenodd" sketch:type="MSPage">
        <g id="Library" sketch:type="MSArtboardGroup" transform="translate(-1057.000000, -792.000000)" fill="#4183D7">
            <g id="follow" sketch:type="MSLayerGroup" transform="translate(923.000000, 710.000000)">
                <path d="M150,83.6564203 C149.41111,83.9375079 148.77924,84.1281383 148.115343,84.2132447 C148.793227,83.7759691 149.31213,83.0823887 149.558065,82.2584733 C148.922194,82.6634186 148.220311,82.9574609 147.47244,83.1168593 C146.873564,82.4286579 146.021719,82 145.076881,82 C143.264224,82 141.794496,83.5831984 141.794496,85.5347311 C141.794496,85.8115099 141.82349,86.0818396 141.87949,86.340341 C139.152008,86.1927707 136.733469,84.785136 135.114773,82.6461833 C134.831818,83.1674669 134.670851,83.7748708 134.670851,84.4232508 C134.670851,85.6499711 135.250747,86.7323599 136.130592,87.3656167 C135.592682,87.346241 135.086773,87.1868426 134.64387,86.9218919 L134.64387,86.9660504 C134.64387,88.6784854 135.775663,90.1076644 137.276371,90.4329386 C137.001417,90.5126378 136.711482,90.5567963 136.411533,90.5567963 C136.199585,90.5567963 135.994618,90.534182 135.79365,90.4910937 C136.211559,91.8965881 137.423352,92.9186533 138.859093,92.9466747 C137.736294,93.8944478 136.320553,94.4577214 134.782851,94.4577214 C134.517909,94.4577214 134.256942,94.4404861 134,94.4092541 C135.452734,95.4141121 137.177417,96 139.031067,96 C145.068933,96 148.369331,90.612811 148.369331,85.9407747 L148.358324,85.4830534 C149.003188,84.9875945 149.561071,84.3650957 150,83.6564203 L150,83.6564203 Z" id="tw" sketch:type="MSShapeGroup"></path>
            </g>
        </g>
    </g>
</svg>