<?xml version="1.0" encoding="UTF-8" standalone="no"?>
<svg width="20px" height="10px" viewBox="0 0 20 10" version="1.1" xmlns="http://www.w3.org/2000/svg" xmlns:xlink="http://www.w3.org/1999/xlink" xmlns:sketch="http://www.bohemiancoding.com/sketch/ns">
    <!-- Generator: Sketch 3.4.4 (17249) - http://www.bohemiancoding.com/sketch -->
    <title>vk</title>
    <desc>Created with Sketch.</desc>
    <defs></defs>
    <g id="Lingua" stroke="none" stroke-width="1" fill="none" fill-rule="evenodd" sketch:type="MSPage">
        <g id="Library" sketch:type="MSArtboardGroup" transform="translate(-963.000000, -794.000000)" fill="#fff">
            <g id="follow" sketch:type="MSLayerGroup" transform="translate(923.000000, 710.000000)">
                <path d="M57.7330532,88.1807889 C58.0174595,87.858594 58.2432563,87.6000742 58.4099928,87.4050321 C59.6109238,86.0058252 60.1314588,85.1120028 59.9719357,84.7223136 L59.9093438,84.6310481 C59.8677536,84.5762295 59.7599272,84.5258886 59.5865408,84.4803217 C59.4129289,84.4347877 59.190814,84.4275115 58.9201959,84.4575712 L55.9212685,84.4761074 C55.8518387,84.4700494 55.7823715,84.4714651 55.7129418,84.4803217 C55.6435121,84.4895734 55.5984654,84.4988579 55.5775012,84.5077145 C55.5565746,84.5169991 55.5393299,84.5244399 55.5255417,84.530498 L55.4839515,84.5578908 C55.4492366,84.576032 55.4111029,84.6080671 55.3694751,84.6538315 C55.3278098,84.699563 55.2928695,84.7525708 55.265293,84.813612 C54.9390335,85.5496624 54.5676898,86.2341536 54.1511115,86.8668554 C53.8942066,87.2440663 53.658078,87.5712986 53.4431389,87.847729 C53.2278993,88.124785 53.0474121,88.3285191 52.9016022,88.4590631 C52.7558675,88.5898374 52.6238458,88.6949969 52.5059506,88.7738171 C52.3877548,88.853197 52.2976239,88.8864503 52.2353325,88.8743672 C52.1727406,88.8622841 52.1136803,88.8502009 52.0582642,88.8376898 C51.9610326,88.7831017 51.8828115,88.7087262 51.8239766,88.6142342 C51.7649162,88.5201701 51.7251294,88.4014459 51.7041652,88.2583909 C51.6834641,88.1155334 51.6710659,87.9922328 51.6678349,87.8886537 C51.664153,87.785305 51.6659939,87.6394185 51.6731323,87.450599 C51.6800452,87.261977 51.6834641,87.1344621 51.6834641,87.0673629 C51.6834641,86.8364335 51.6887615,86.5853875 51.6991684,86.3145871 C51.7095002,86.0439842 51.7182541,85.8293852 51.7251294,85.6711851 C51.7320423,85.5132154 51.7354612,85.3457636 51.7354612,85.1692577 C51.7354612,84.9931469 51.7232885,84.8545037 51.6988303,84.7539865 C51.6744848,84.6538315 51.637929,84.556508 51.5896513,84.4620159 C51.5409228,84.3679189 51.46984,84.2947617 51.3760272,84.2432026 C51.282252,84.191413 51.166085,84.1505214 51.0272632,84.1198691 C50.6591129,84.0467118 50.1905375,84.0076309 49.6214619,84.0012107 C48.3301746,83.9895227 47.5005873,84.0624495 47.1327,84.2204191 C46.9869277,84.2875184 46.8549436,84.3785863 46.7370108,84.4942486 C46.6119397,84.6282495 46.5946949,84.7013739 46.6850512,84.7130619 C47.101667,84.7678805 47.3964803,84.8988524 47.5700546,85.1055826 L47.6326089,85.2149892 C47.681112,85.2943692 47.7296527,85.4342306 47.7783812,85.6349028 C47.8269219,85.8356078 47.8581803,86.0576477 47.872194,86.3010553 C47.9069089,86.7451351 47.9069089,87.1251776 47.872194,87.4417424 C47.8374792,87.7582744 47.8046052,88.0045134 47.7733468,88.1806242 C47.7420509,88.3571302 47.6951633,88.4999877 47.6328343,88.6093943 C47.57028,88.7191961 47.5286898,88.7860978 47.5077632,88.8104616 C47.4868366,88.8346278 47.4695919,88.8499375 47.4558036,88.8560285 C47.3654473,88.8862528 47.27186,88.9015625 47.1746283,88.9015625 C47.0773591,88.9015625 46.9593887,88.858827 46.8205293,88.7735866 C46.6816323,88.6887742 46.5374755,88.5714987 46.3884722,88.4223856 C46.239018,88.273503 46.070929,88.064962 45.8833034,87.7971577 C45.6959033,87.5297814 45.5013649,87.2132165 45.3001766,86.8483191 L45.1337031,86.5835438 C45.0295585,86.413491 44.8872051,86.1654411 44.7067179,85.8400197 C44.5262307,85.5145982 44.3664071,85.1998771 44.2277732,84.8954283 C44.1721317,84.7678805 44.0888762,84.6705569 43.9778563,84.6034577 L43.9258967,84.5760649 C43.8911818,84.5518657 43.8355404,84.5258886 43.7591978,84.4986604 C43.6826297,84.4712676 43.6030936,84.4515131 43.5196127,84.4392325 L40.66642,84.4573736 C40.3748753,84.4573736 40.1771434,84.5154188 40.0729989,84.6310481 L40.0313711,84.6856691 C40.0103318,84.7162885 40,84.765049 40,84.8317532 C40,84.8988524 40.0209266,84.9808662 40.0625544,85.0779922 C40.4791702,85.9359604 40.9321539,86.7633092 41.4214305,87.5600057 C41.91097,88.3571302 42.3361142,88.9990835 42.6970886,89.4857012 C43.0580629,89.9727139 43.4259502,90.4317083 43.8009758,90.8637049 C44.1760014,91.2957016 44.4240774,91.5723296 44.5454667,91.6938523 C44.6668559,91.8157701 44.7622842,91.9070685 44.8317515,91.9676817 L45.0920377,92.1868901 C45.2585112,92.3328096 45.5033937,92.5076693 45.8262343,92.7116009 C46.1490374,92.9154996 46.5063674,93.1162047 46.8988632,93.3136833 C47.2909081,93.5115569 47.7475361,93.6725226 48.2680711,93.7974694 C48.7886436,93.9223833 49.2953903,93.9725267 49.7883487,93.9479653 L50.9858608,93.9479653 C51.2289024,93.9298242 51.4127709,93.863153 51.5376917,93.7472602 L51.5792819,93.7017263 C51.6068585,93.665444 51.6330824,93.609045 51.6574279,93.5330563 C51.6815856,93.4571005 51.6940589,93.3732758 51.6940589,93.2822079 C51.6868829,93.020692 51.7096881,92.7845277 51.7616476,92.5749661 C51.8136072,92.3650093 51.8726675,92.2070396 51.9387159,92.1002669 C52.0046892,91.9940539 52.0791533,91.9042041 52.1625967,91.8310468 C52.2458898,91.7578896 52.3047247,91.7141664 52.3396649,91.6988567 C52.3743798,91.6839421 52.4022569,91.6732747 52.4229581,91.6668216 C52.589394,91.6182257 52.7855104,91.6654059 53.0113072,91.8082634 C53.2368786,91.9515489 53.4486617,92.1276268 53.646619,92.3375836 C53.8443134,92.5475403 54.0820575,92.7830791 54.3598515,93.0448254 C54.6373824,93.3063412 54.8803864,93.5009883 55.0887131,93.6287336 L55.2970398,93.7385683 C55.4358616,93.8112976 55.616161,93.8781992 55.8385013,93.9392734 C56.0606163,93.9999195 56.2551547,94.0152292 56.4215906,93.9848074 L59.0873833,93.94813 C59.351126,93.94813 59.5559962,93.9102673 59.7018061,93.834081 C59.8475409,93.7585203 59.9342904,93.6743005 59.9620924,93.5832326 C59.9896689,93.4919671 59.9915098,93.3890135 59.9673897,93.2731208 C59.9430443,93.1576561 59.9186612,93.077058 59.8945412,93.031524 C59.8701957,92.9859901 59.8475784,92.9476994 59.8266518,92.9174751 C59.4795033,92.3700138 58.8165773,91.6976056 57.8377613,90.9007116 L57.8168347,90.8825704 L57.8065029,90.8733188 L57.7961711,90.8644293 L57.7857266,90.8644293 C57.3412712,90.4932763 57.0602838,90.2438107 56.9423134,90.1158678 C56.727149,89.8728882 56.6783829,89.6264516 56.7965787,89.3770189 C56.8793458,89.1878701 57.1915916,88.7893243 57.7330532,88.1807889 L57.7330532,88.1807889 Z" id="vk" sketch:type="MSShapeGroup"></path>
            </g>
        </g>
    </g>
</svg>