<?xml version="1.0" encoding="UTF-8" standalone="no"?>
<svg width="20px" height="20px" viewBox="0 0 20 20" version="1.1" xmlns="http://www.w3.org/2000/svg" xmlns:xlink="http://www.w3.org/1999/xlink" xmlns:sketch="http://www.bohemiancoding.com/sketch/ns">
    <!-- Generator: Sketch 3.4.4 (17249) - http://www.bohemiancoding.com/sketch -->
    <title>add</title>
    <desc>Created with Sketch.</desc>
    <defs></defs>
    <g id="Lingua" stroke="none" stroke-width="1" fill="none" fill-rule="evenodd" sketch:type="MSPage">
        <g id="My-Library-(add-dict)" sketch:type="MSArtboardGroup" transform="translate(-605.000000, -547.000000)" fill="#FFFFFF">
            <g id="new" sketch:type="MSLayerGroup">
                <g id="add" transform="translate(503.000000, 482.000000)" sketch:type="MSShapeGroup">
                    <path d="M112,83 C107.59,83 104,79.41 104,75 C104,70.59 107.59,67 112,67 C116.41,67 120,70.59 120,75 C120,79.41 116.41,83 112,83 L112,83 Z M112,65 C106.477153,65 102,69.4771525 102,75 C102,77.6521649 103.053568,80.195704 104.928932,82.0710678 C106.804296,83.9464316 109.347835,85 112,85 C114.652165,85 117.195704,83.9464316 119.071068,82.0710678 C120.946432,80.195704 122,77.6521649 122,75 C122,72.3478351 120.946432,69.804296 119.071068,67.9289322 C117.195704,66.0535684 114.652165,65 112,65 L112,65 Z M113,70 L111,70 L111,74 L107,74 L107,76 L111,76 L111,80 L113,80 L113,76 L117,76 L117,74 L113,74 L113,70 L113,70 Z"></path>
                </g>
            </g>
        </g>
    </g>
</svg>