<?xml version="1.0" encoding="UTF-8" standalone="no"?>
<svg width="14px" height="14px" viewBox="0 0 14 14" version="1.1" xmlns="http://www.w3.org/2000/svg" xmlns:xlink="http://www.w3.org/1999/xlink" xmlns:sketch="http://www.bohemiancoding.com/sketch/ns">
    <!-- Generator: Sketch 3.4.4 (17249) - http://www.bohemiancoding.com/sketch -->
    <title>catalog</title>
    <desc>Created with Sketch.</desc>
    <defs></defs>
    <g id="Lingua" stroke="none" stroke-width="1" fill="none" fill-rule="evenodd" sketch:type="MSPage">
        <g id="Library" sketch:type="MSArtboardGroup" transform="translate(-133.000000, -233.000000)" fill="#fff">
            <g id="search" sketch:type="MSLayerGroup" transform="translate(113.000000, 210.000000)">
                <path d="M20,24.0093689 C20,23.4519098 20.4433532,23 21.0093689,23 L22.9906311,23 C23.5480902,23 24,23.4433532 24,24.0093689 L24,25.9906311 C24,26.5480902 23.5566468,27 22.9906311,27 L21.0093689,27 C20.4519098,27 20,26.5566468 20,25.9906311 L20,24.0093689 Z M30,24.0093689 C30,23.4519098 30.4433532,23 31.0093689,23 L32.9906311,23 C33.5480902,23 34,23.4433532 34,24.0093689 L34,25.9906311 C34,26.5480902 33.5566468,27 32.9906311,27 L31.0093689,27 C30.4519098,27 30,26.5566468 30,25.9906311 L30,24.0093689 Z M25,24.0093689 C25,23.4519098 25.4433532,23 26.0093689,23 L27.9906311,23 C28.5480902,23 29,23.4433532 29,24.0093689 L29,25.9906311 C29,26.5480902 28.5566468,27 27.9906311,27 L26.0093689,27 C25.4519098,27 25,26.5566468 25,25.9906311 L25,24.0093689 Z M20,29.0093689 C20,28.4519098 20.4433532,28 21.0093689,28 L22.9906311,28 C23.5480902,28 24,28.4433532 24,29.0093689 L24,30.9906311 C24,31.5480902 23.5566468,32 22.9906311,32 L21.0093689,32 C20.4519098,32 20,31.5566468 20,30.9906311 L20,29.0093689 Z M30,29.0093689 C30,28.4519098 30.4433532,28 31.0093689,28 L32.9906311,28 C33.5480902,28 34,28.4433532 34,29.0093689 L34,30.9906311 C34,31.5480902 33.5566468,32 32.9906311,32 L31.0093689,32 C30.4519098,32 30,31.5566468 30,30.9906311 L30,29.0093689 Z M25,29.0093689 C25,28.4519098 25.4433532,28 26.0093689,28 L27.9906311,28 C28.5480902,28 29,28.4433532 29,29.0093689 L29,30.9906311 C29,31.5480902 28.5566468,32 27.9906311,32 L26.0093689,32 C25.4519098,32 25,31.5566468 25,30.9906311 L25,29.0093689 Z M20,34.0093689 C20,33.4519098 20.4433532,33 21.0093689,33 L22.9906311,33 C23.5480902,33 24,33.4433532 24,34.0093689 L24,35.9906311 C24,36.5480902 23.5566468,37 22.9906311,37 L21.0093689,37 C20.4519098,37 20,36.5566468 20,35.9906311 L20,34.0093689 Z M30,34.0093689 C30,33.4519098 30.4433532,33 31.0093689,33 L32.9906311,33 C33.5480902,33 34,33.4433532 34,34.0093689 L34,35.9906311 C34,36.5480902 33.5566468,37 32.9906311,37 L31.0093689,37 C30.4519098,37 30,36.5566468 30,35.9906311 L30,34.0093689 Z M25,34.0093689 C25,33.4519098 25.4433532,33 26.0093689,33 L27.9906311,33 C28.5480902,33 29,33.4433532 29,34.0093689 L29,35.9906311 C29,36.5480902 28.5566468,37 27.9906311,37 L26.0093689,37 C25.4519098,37 25,36.5566468 25,35.9906311 L25,34.0093689 Z" id="catalog" sketch:type="MSShapeGroup"></path>
            </g>
        </g>
    </g>
</svg>