<?xml version="1.0" encoding="UTF-8" standalone="no"?>
<svg width="18px" height="18px" viewBox="0 0 18 18" version="1.1" xmlns="http://www.w3.org/2000/svg" xmlns:xlink="http://www.w3.org/1999/xlink" xmlns:sketch="http://www.bohemiancoding.com/sketch/ns">
    <!-- Generator: Sketch 3.4.4 (17249) - http://www.bohemiancoding.com/sketch -->
    <title>checked</title>
    <desc>Created with Sketch.</desc>
    <defs></defs>
    <g id="Lingua" stroke="none" stroke-width="1" fill="none" fill-rule="evenodd" sketch:type="MSPage">
        <g id="Dictionary" sketch:type="MSArtboardGroup" transform="translate(-133.000000, -250.000000)" fill="#4183D7">
            <g id="list" sketch:type="MSLayerGroup" transform="translate(113.000000, 220.000000)">
                <g id="1" sketch:type="MSShapeGroup">
                    <path d="M36,46 L22,46 L22,32 L32,32 L32,30 L22,30 C20.89,30 20,30.89 20,32 L20,46 C20,47.1045695 20.8954305,48 22,48 L36,48 C37.1045695,48 38,47.1045695 38,46 L38,38 L36,38 L36,46 Z M24.91,37.08 L23.5,38.5 L28,43 L38,33 L36.59,31.58 L28,40.17 L24.91,37.08 L24.91,37.08 Z" id="checked"></path>
                </g>
            </g>
        </g>
    </g>
</svg>