<svg id="SvgjsSvg1000" xmlns="http://www.w3.org/2000/svg" version="1.1" xmlns:xlink="http://www.w3.org/1999/xlink" xmlns:svgjs="http://svgjs.com/svgjs" width="24" height="24"><defs id="SvgjsDefs1001"></defs><path id="SvgjsPath1007" d="M559.49 374.77L552 381.27C553.27 381.74 554.64 382 556.07 382C562.6600000000001 382 568 376.56 568 369.86C568 368.51 567.78 367.21000000000004 567.38 366L560.61 366C561.47 367.04 561.98 368.39 561.98 369.86C561.98 371.89 561 373.68 559.49 374.77000000000004ZM555 375.64C552.66 375.25 550.79 373.51 550.23 371.26L547.0500000000001 362C545.1500000000001 364.09 544.0000000000001 366.85 544.0000000000001 369.87C544.0000000000001 374.17 546.3300000000002 377.93 549.8100000000001 380ZM551.22 367C552.2900000000001 365.28 554.2 364.13 556.38 364.13C556.48 364.13 556.57 364.14 556.67 364.14L567 364.14C564.9 360.46999999999997 560.93 358 556.38 358C553.61 358 551.05 358.92 549 360.47ZM556 374C553.79 374 552 372.21 552 370C552 367.79 553.79 366 556 366C558.21 366 560 367.79 560 370C560 372.21 558.21 374 556 374Z " fill="#4183d7" fill-opacity="1" transform="matrix(1,0,0,1,-544,-358)"></path></svg>