<svg id="SvgjsSvg1008" xmlns="http://www.w3.org/2000/svg" version="1.1" xmlns:xlink="http://www.w3.org/1999/xlink" xmlns:svgjs="http://svgjs.com/svgjs" width="49" height="37"><defs id="SvgjsDefs1009"></defs><path id="SvgjsPath1010" d="M150.81 2038.92L137.21 2044.1200000000001L124.09 2038.92L124.09 2027.41C124.09 2027.0900000000001 123.93 2026.78 123.61 2026.6200000000001L115.03 2022.23L137.54 2012.67L159.19 2022.8500000000001L159.19 2038.0700000000002C159.19 2038.5500000000002 159.56 2038.9700000000003 160.09 2038.9700000000003C160.57 2038.9700000000003 161 2038.6000000000004 161 2038.0700000000002L161 2022.3200000000002C161 2021.9500000000003 160.79 2021.69 160.47 2021.5300000000002L137.57999999999998 2011.0800000000002C137.36999999999998 2010.9700000000003 137.1 2010.9700000000003 136.83999999999997 2011.0800000000002L113.52999999999997 2021.5300000000002C112.82999999999997 2021.8400000000001 112.82999999999997 2022.7500000000002 113.46999999999997 2023.1200000000001L122.32999999999997 2028.1100000000001L122.32999999999997 2039.5000000000002C122.32999999999997 2039.8800000000003 122.53999999999996 2040.1900000000003 122.90999999999997 2040.3500000000001L136.93999999999997 2045.92C137.15999999999997 2046.03 137.36999999999998 2046.03 137.57999999999996 2045.92L152.03999999999996 2040.3500000000001C152.35999999999996 2040.2500000000002 152.62999999999997 2039.88 152.62999999999997 2039.5000000000002L152.62999999999997 2027.4100000000003C152.62999999999997 2026.7800000000002 151.98999999999998 2026.3500000000004 151.39999999999998 2026.5600000000004L137.26 2032.0800000000004L129.89999999999998 2028.9500000000003C129.48 2028.7400000000002 128.93999999999997 2028.9500000000003 128.73 2029.4300000000003C128.51999999999998 2029.9100000000003 128.73 2030.3800000000003 129.20999999999998 2030.5900000000004L136.89 2033.8300000000004C137.1 2033.9400000000003 137.36999999999998 2033.9400000000003 137.57999999999998 2033.8300000000004L150.86999999999998 2028.9500000000003 " fill="#4183d7" fill-opacity="1" transform="matrix(1,0,0,1,-112,-2010)"></path></svg>