<svg id="SvgjsSvg1011" xmlns="http://www.w3.org/2000/svg" version="1.1" xmlns:xlink="http://www.w3.org/1999/xlink" xmlns:svgjs="http://svgjs.com/svgjs" width="29" height="35"><defs id="SvgjsDefs1012"></defs><path id="SvgjsPath1013" d="M826 2618L855 2618L855 2653L826 2653ZM828 2651L853 2651L853 2620L850 2620L850 2628L847 2625.71L844 2628L844 2620L828 2620ZM832 2621C832 2620.44772 832.44772 2620 833 2620C833.55228 2620 834 2620.44772 834 2621L834 2650C834 2650.55228 833.55228 2651 833 2651C832.44772 2651 832 2650.55228 832 2650ZM846 2624L847 2623L848 2624L848 2620L846 2620Z " fill="#4183d7" fill-opacity="1" transform="matrix(1,0,0,1,-826,-2618)"></path></svg>