<svg id="SvgjsSvg1000" xmlns="http://www.w3.org/2000/svg" version="1.1" xmlns:xlink="http://www.w3.org/1999/xlink" xmlns:svgjs="http://svgjs.com/svgjs" width="98" height="14"><defs id="SvgjsDefs1001"></defs><path id="SvgjsPath1007" d="M182.12 46.56L181.3 44.300000000000004L175.58 44.300000000000004L174.74 46.56L171.5 46.56L176.66 33.22L180.22 33.22L185.35999999999999 46.56ZM150.98 46.82C147.07999999999998 46.82 143.88 44.1 143.88 39.9C143.88 35.68 147.07999999999998 33 150.98 33C153.76 33 155.5 34.4 156.5 35.98L154.14 37.26C153.54 36.32 152.39999999999998 35.519999999999996 150.98 35.519999999999996C148.56 35.519999999999996 146.79999999999998 37.379999999999995 146.79999999999998 39.9C146.79999999999998 42.42 148.55999999999997 44.28 150.98 44.28C152.16 44.28 153.28 43.76 153.82 43.26L153.82 41.66L150.29999999999998 41.66L150.29999999999998 39.18L156.66 39.18L156.66 44.3C155.29999999999998 45.82 153.4 46.82 150.98 46.82ZM164.94 46.8C160.88 46.8 158.92 44.519999999999996 158.92 41.239999999999995L158.92 33.22L161.79999999999998 33.22L161.79999999999998 41.14C161.79999999999998 43 162.88 44.28 164.93999999999997 44.28C166.99999999999997 44.28 168.05999999999997 43 168.05999999999997 41.14L168.05999999999997 33.22L170.95999999999998 33.22L170.95999999999998 41.22C170.95999999999998 44.54 168.99999999999997 46.8 164.93999999999997 46.8ZM139.14 46.56L132.77999999999997 37.86L132.77999999999997 46.56L129.93999999999997 46.56L129.93999999999997 33.22L132.85999999999996 33.22L139.03999999999996 41.6L139.03999999999996 33.22L141.87999999999997 33.22L141.87999999999997 46.56ZM114 46.56L114 33.22L116.84 33.22L116.84 44.06L122.48 44.06L122.48 46.56ZM124.46 46.56L124.46 33.22L127.3 33.22L127.3 46.56ZM191.72 46.56L191.72 33.22L194.56 33.22L194.56 46.56ZM178.44 36.06L176.35999999999999 41.800000000000004L180.51999999999998 41.800000000000004ZM187.84 46.78C186.96 46.78 186.22 46.04 186.22 45.160000000000004C186.22 44.28 186.96 43.540000000000006 187.84 43.540000000000006C188.72 43.540000000000006 189.46 44.28000000000001 189.46 45.160000000000004C189.46 46.040000000000006 188.72 46.78 187.84 46.78ZM211.66 46.56L211.66 33.22L207.66 33.22L204.42 41.28L201.17999999999998 33.22L197.2 33.22L197.2 46.56L200.04 46.56L200.04 37.22L203.79999999999998 46.56L205.04 46.56L208.79999999999998 37.22L208.79999999999998 46.56Z " fill="#4183d7" fill-opacity="1" transform="matrix(1,0,0,1,-114,-33)"></path></svg>