<?xml version="1.0" encoding="UTF-8" standalone="no"?>
<svg width="20px" height="20px" viewBox="0 0 20 20" version="1.1" xmlns="http://www.w3.org/2000/svg" xmlns:xlink="http://www.w3.org/1999/xlink" xmlns:sketch="http://www.bohemiancoding.com/sketch/ns">
    <!-- Generator: Sketch 3.4.4 (17249) - http://www.bohemiancoding.com/sketch -->
    <title>checked</title>
    <desc>Created with Sketch.</desc>
    <defs></defs>
    <g id="Lingua" stroke="none" stroke-width="1" fill="none" fill-rule="evenodd" sketch:type="MSPage">
        <g id="Dictionary" sketch:type="MSArtboardGroup" transform="translate(-132.000000, -160.000000)" fill="#4183D7">
            <g id="search" sketch:type="MSLayerGroup" transform="translate(113.000000, 140.000000)">
                <path d="M37,34 L37,28 L39,28 L39,34 C39,35.1045695 38.1045695,36 37,36 L25,36 C23.89,36 23,35.1 23,34 L23,22 C23,20.89 23.89,20 25,20 L33,20 L33,22 L25,22 L25,34 L37,34 L37,34 Z M27.91,25.08 L31,28.17 L37.59,21.58 L39,23 L31,31 L26.5,26.5 L27.91,25.08 L27.91,25.08 Z M33,38 L33,40 L21,40 C19.8954305,40 19,39.1045695 19,38 L19,25 L21,25 L21,38 L33,38 L33,38 Z" id="checked" sketch:type="MSShapeGroup"></path>
            </g>
        </g>
    </g>
</svg>