<?xml version="1.0" encoding="UTF-8" standalone="no"?>
<svg width="16px" height="16px" viewBox="0 0 16 16" version="1.1" xmlns="http://www.w3.org/2000/svg" xmlns:xlink="http://www.w3.org/1999/xlink" xmlns:sketch="http://www.bohemiancoding.com/sketch/ns">
    <!-- Generator: Sketch 3.4.4 (17249) - http://www.bohemiancoding.com/sketch -->
    <title>search</title>
    <desc>Created with Sketch.</desc>
    <defs></defs>
    <g id="Lingua" stroke="none" stroke-width="1" fill="none" fill-rule="evenodd" sketch:type="MSPage">
        <g id="Library" sketch:type="MSArtboardGroup" transform="translate(-827.000000, -232.000000)" fill="#4183D7">
            <g id="search" sketch:type="MSLayerGroup" transform="translate(113.000000, 210.000000)">
                <path d="M719.942857,22 C723.225007,22 725.885714,24.6607078 725.885714,27.9428571 C725.885714,29.4148571 725.346286,30.768 724.459429,31.8102857 L724.706286,32.0571429 L725.428571,32.0571429 L730,36.6285714 L728.628571,38 L724.057143,33.4285714 L724.057143,32.7062857 L723.810286,32.4594286 C722.768,33.3462857 721.414857,33.8857143 719.942857,33.8857143 C716.660708,33.8857143 714,31.2250065 714,27.9428571 C714,24.6607078 716.660708,22 719.942857,22 L719.942857,22 Z M719.942857,23.8285714 C717.657143,23.8285714 715.828571,25.6571429 715.828571,27.9428571 C715.828571,30.2285714 717.657143,32.0571429 719.942857,32.0571429 C722.228571,32.0571429 724.057143,30.2285714 724.057143,27.9428571 C724.057143,25.6571429 722.228571,23.8285714 719.942857,23.8285714 L719.942857,23.8285714 Z" sketch:type="MSShapeGroup"></path>
            </g>
        </g>
    </g>
</svg>