<svg id="SvgjsSvg1000" xmlns="http://www.w3.org/2000/svg" version="1.1" xmlns:xlink="http://www.w3.org/1999/xlink" xmlns:svgjs="http://svgjs.com/svgjs" width="35" height="35"><defs id="SvgjsDefs1001"></defs><path id="SvgjsPath1007" d="M842.74 1425C842.1800000000001 1425 841.99 1425 840.1 1420.23L838.65 1419.63C834.68 1421.47 834.2099999999999 1421.47 834.05 1421.47L833.75 1421.47L833.49 1421.24L830.88 1418.63C830.48 1418.23 830.34 1418.0900000000001 832.39 1413.38L831.79 1411.95C827 1410.2 827 1409.99 827 1409.42L827 1405.74C827 1405.16 827 1404.98 831.78 1403.09L832.37 1401.6499999999999C830.21 1397.0199999999998 830.36 1396.8799999999999 830.79 1396.4699999999998L833.5899999999999 1393.6599999999999L833.9399999999999 1393.6499999999999C834.3599999999999 1393.6499999999999 835.93 1394.2299999999998 838.6099999999999 1395.3899999999999L840.06 1394.79C841.81 1390 842.03 1390 842.5799999999999 1390L846.2599999999999 1390C846.8099999999998 1390 846.9999999999999 1390 848.8899999999999 1394.77L850.3499999999999 1395.37C854.31 1393.54 854.79 1393.54 854.9499999999999 1393.54L855.2499999999999 1393.54L855.5099999999999 1393.76L858.1199999999999 1396.36C858.5099999999999 1396.77 858.6499999999999 1396.9099999999999 856.6099999999999 1401.62L857.1999999999999 1403.06C861.9999999999999 1404.8 861.9999999999999 1405 861.9999999999999 1405.58L861.9999999999999 1409.26C861.9999999999999 1409.82 861.9999999999999 1410.02 857.2199999999999 1411.91L856.6299999999999 1413.3500000000001C858.7799999999999 1417.96 858.6299999999999 1418.1100000000001 858.2299999999999 1418.5200000000002L855.4099999999999 1421.3400000000001L855.0599999999998 1421.3500000000001C854.6299999999999 1421.3500000000001 853.0699999999998 1420.7700000000002 850.3899999999999 1419.6100000000001L848.9299999999998 1420.21C847.1799999999998 1425 846.9799999999998 1425 846.4099999999999 1425ZM846.02 1423.48C846.35 1422.79 847.0699999999999 1420.95 847.65 1419.3700000000001L847.77 1419.0500000000002L850.41 1417.9700000000003L850.6899999999999 1418.0900000000001C852.27 1418.7700000000002 854.13 1419.5300000000002 854.8499999999999 1419.7700000000002L856.8899999999999 1417.7300000000002C856.6299999999999 1417.0000000000002 855.8499999999999 1415.2100000000003 855.1399999999999 1413.6900000000003L854.9999999999999 1413.3900000000003L856.0899999999999 1410.7200000000003L856.3899999999999 1410.6100000000004C857.9799999999999 1409.9800000000002 859.8199999999998 1409.2100000000003 860.5099999999999 1408.8600000000004L860.5099999999999 1406.0000000000005C859.8099999999998 1405.6600000000005 857.9799999999999 1404.9500000000005 856.3999999999999 1404.3800000000006L856.0899999999999 1404.2700000000007L854.9899999999999 1401.6000000000006L855.1199999999999 1401.3000000000006C855.7899999999998 1399.7400000000007 856.5499999999998 1397.9000000000005 856.7899999999998 1397.1600000000005L854.7399999999999 1395.1200000000006C854.0799999999999 1395.3600000000006 852.2399999999999 1396.1600000000005 850.68 1396.8900000000006L850.39 1397.0300000000007L847.74 1395.9400000000007L847.63 1395.6400000000008C847 1394.0500000000009 846.23 1392.2000000000007 845.88 1391.520000000001L842.98 1391.520000000001C842.64 1392.210000000001 841.9200000000001 1394.0500000000009 841.35 1395.6300000000008L841.23 1395.9400000000007L838.6 1397.0400000000006L838.32 1396.9100000000005C836.74 1396.2300000000005 834.87 1395.4700000000005 834.1400000000001 1395.2400000000005L832.1100000000001 1397.2700000000004C832.3600000000001 1398.0100000000004 833.1500000000001 1399.8000000000004 833.8600000000001 1401.3100000000004L834.0000000000001 1401.6200000000003L832.9000000000001 1404.2800000000004L832.6100000000001 1404.4000000000003C831.0200000000001 1405.0200000000002 829.1800000000002 1405.7900000000004 828.4900000000001 1406.1400000000003L828.4900000000001 1409.0000000000002C829.1900000000002 1409.3400000000001 831.0200000000001 1410.0500000000002 832.6000000000001 1410.6300000000003L832.9100000000001 1410.7400000000002L834.0100000000001 1413.4000000000003L833.8800000000001 1413.7000000000003C833.2000000000002 1415.2600000000002 832.4500000000002 1417.0900000000004 832.2100000000002 1417.8300000000004L834.2600000000001 1419.8800000000003C834.9200000000001 1419.6400000000003 836.7600000000001 1418.8300000000004 838.32 1418.1100000000004L838.61 1417.9700000000003L841.25 1419.0600000000002L841.37 1419.3600000000001C841.99 1420.96 842.77 1422.8000000000002 843.12 1423.48ZM838.38 1407.5C838.38 1404.12 841.13 1401.38 844.5 1401.38C847.87 1401.38 850.61 1404.1200000000001 850.61 1407.5C850.61 1410.88 847.87 1413.63 844.5 1413.63C841.13 1413.63 838.38 1410.88 838.38 1407.5ZM839.87 1407.5C839.87 1410.04 841.95 1412.1 844.5 1412.1C847.05 1412.1 849.12 1410.04 849.12 1407.5C849.12 1404.96 847.05 1402.9 844.5 1402.9C841.95 1402.9 839.87 1404.96 839.87 1407.5Z " fill="#4183d7" fill-opacity="1" transform="matrix(1,0,0,1,-827,-1390)"></path></svg>