<?xml version="1.0" encoding="UTF-8" standalone="no"?>
<svg width="18px" height="18px" viewBox="0 0 18 18" version="1.1" xmlns="http://www.w3.org/2000/svg" xmlns:xlink="http://www.w3.org/1999/xlink" xmlns:sketch="http://www.bohemiancoding.com/sketch/ns">
    <!-- Generator: Sketch 3.4.4 (17249) - http://www.bohemiancoding.com/sketch -->
    <title>sound</title>
    <desc>Created with Sketch.</desc>
    <defs></defs>
    <g id="Lingua" stroke="none" stroke-width="1" fill="none" fill-rule="evenodd" sketch:type="MSPage">
        <g id="Dictionary" sketch:type="MSArtboardGroup" transform="translate(-192.000000, -250.000000)" fill="#03C9A9">
            <g id="list" sketch:type="MSLayerGroup" transform="translate(113.000000, 220.000000)">
                <g id="1" sketch:type="MSShapeGroup">
                    <path d="M90,30 L90,32.1140251 C92.89,32.9965792 95,35.7468643 95,39 C95,42.2531357 92.89,44.9931585 90,45.8757127 L90,48 C94,47.0661345 97,43.3922463 97,39 C97,34.6077537 94,30.9338655 90,30 L90,30 Z M92.5,39 C92.5,37.1835804 91.5,35.6237172 90,34.8643101 L90,43.1049031 C91.5,42.3762828 92.5,40.8061574 92.5,39 L92.5,39 Z M79,35.9213227 L79,42.0786773 L83,42.0786773 L88,47.2098062 L88,30.7901938 L83,35.9213227 L79,35.9213227 L79,35.9213227 Z" id="sound"></path>
                </g>
            </g>
        </g>
    </g>
</svg>