<svg id="SvgjsSvg1014" xmlns="http://www.w3.org/2000/svg" version="1.1" xmlns:xlink="http://www.w3.org/1999/xlink" xmlns:svgjs="http://svgjs.com/svgjs" width="49" height="35"><defs id="SvgjsDefs1015"></defs><path id="SvgjsPath1016" d="M132.84 3245.83C133.43 3246.2799999999997 134.25 3245.7599999999998 134.14000000000001 3245L133.45000000000002 3240.35L133.61 3240.2799999999997C138.68 3238.12 142 3233.47 142 3228.2599999999998C142 3220.91 135.48 3214.9999999999995 127.5 3214.9999999999995C119.52 3214.9999999999995 113 3220.9099999999994 113 3228.2599999999998C113 3235.39 119.14 3241.1899999999996 126.85 3241.4999999999995C126.85 3241.4999999999995 127.27 3241.5499999999997 127.28 3241.5499999999997ZM127.5 3216.72C134.63 3216.72 140.36 3221.9199999999996 140.36 3228.2599999999998C140.36 3232.74 137.48000000000002 3236.77 133.02 3238.68L132.57000000000002 3238.85C132.01000000000002 3239.0699999999997 131.69000000000003 3239.67 131.78000000000003 3240.27L132.21000000000004 3243.21L128.25000000000003 3240.16C127.97000000000003 3239.95 127.53000000000003 3239.79 127.18000000000004 3239.79L126.90000000000003 3239.7799999999997C120.04000000000003 3239.4999999999995 114.64000000000003 3234.3999999999996 114.64000000000003 3228.2599999999998C114.64000000000003 3221.9199999999996 120.37000000000003 3216.72 127.50000000000003 3216.72Z " fill="#4183d7" fill-opacity="1" transform="matrix(1,0,0,1,-113,-3211)"></path><path id="SvgjsPath1017" d="M138.34 3234.76C139.19 3235.3500000000004 140.12 3235.86 141.12 3236.28L141.29 3236.3500000000004L140.59 3241.0000000000005C140.47 3241.7600000000007 141.3 3242.2800000000007 141.9 3241.8300000000004L147.53 3237.55C147.54 3237.55 147.97 3237.5 147.97 3237.5C155.78 3237.19 162 3231.39 162 3224.26C162 3216.9100000000003 155.4 3211 147.31 3211C141.44 3211 136.35 3214.12 134 3218.64C134.5 3218.9 134.98 3219.19 135.44 3219.5099999999998C137.48 3215.52 142.01 3212.72 147.31 3212.72C154.53 3212.72 160.34 3217.9199999999996 160.34 3224.2599999999998C160.34 3230.3999999999996 154.87 3235.4999999999995 147.92000000000002 3235.7799999999997L147.64000000000001 3235.79C147.28 3235.79 146.84 3235.95 146.55 3236.16L142.54000000000002 3239.21L142.98000000000002 3236.27C143.07000000000002 3235.67 142.74 3235.07 142.18 3234.85L141.72 3234.68C140.83 3234.2999999999997 139.99 3233.8399999999997 139.23 3233.31C138.97 3233.81 138.67999999999998 3234.2999999999997 138.34 3234.7599999999998Z " fill="#4183d7" fill-opacity="1" transform="matrix(1,0,0,1,-113,-3211)"></path><path id="SvgjsPath1018" d="M124.83 3226.28C124.84 3225.7400000000002 124.88 3225.17 124.96 3224.5800000000004C126.02 3224.51 127.13 3224.3300000000004 128.25 3224.0900000000006C128.78 3223.9700000000007 129.28 3223.850000000001 129.73 3223.7200000000007C130 3223.6500000000005 130.2 3223.5900000000006 130.31 3223.5500000000006C130.74 3223.4100000000008 130.97 3222.9500000000007 130.84 3222.5100000000007C130.71 3222.060000000001 130.25 3221.8200000000006 129.82 3221.9600000000005C129.73 3221.9900000000007 129.54999999999998 3222.0400000000004 129.29999999999998 3222.1100000000006C128.88 3222.2300000000005 128.41 3222.3400000000006 127.90999999999998 3222.4500000000007C127.01999999999998 3222.6500000000005 126.12999999999998 3222.8000000000006 125.27999999999999 3222.8800000000006C125.34999999999998 3222.6200000000003 125.41999999999999 3222.3500000000004 125.49999999999999 3222.0800000000004C125.62999999999998 3221.6400000000003 125.38999999999999 3221.1700000000005 124.95999999999998 3221.0400000000004C124.52999999999997 3220.9000000000005 124.06999999999998 3221.1500000000005 123.93999999999998 3221.5900000000006C123.80999999999999 3222.0500000000006 123.68999999999998 3222.5100000000007 123.58999999999999 3222.9500000000007C122.80999999999999 3222.9300000000007 122.13 3222.830000000001 121.55999999999999 3222.6500000000005C121.12999999999998 3222.5100000000007 120.66999999999999 3222.7500000000005 120.53999999999999 3223.1900000000005C120.39999999999999 3223.6300000000006 120.63999999999999 3224.1000000000004 121.05999999999999 3224.2400000000007C121.72999999999999 3224.4600000000005 122.47999999999999 3224.580000000001 123.30999999999999 3224.6100000000006C123.21999999999998 3225.4100000000008 123.17999999999999 3226.1800000000007 123.19999999999999 3226.9200000000005C122.69999999999999 3227.1500000000005 122.21999999999998 3227.4200000000005 121.80999999999999 3227.7100000000005C120.18999999999998 3228.8400000000006 119.50999999999999 3230.3100000000004 120.37999999999998 3231.8700000000003C121.31999999999998 3233.57 123.24999999999999 3233.55 125.06999999999998 3232.1600000000003C126.35999999999999 3231.1700000000005 127.53999999999998 3229.57 128.39999999999998 3227.6200000000003C129.55999999999997 3227.8900000000003 130.36999999999998 3228.6500000000005 130.36999999999998 3229.7900000000004C130.36999999999998 3230.6700000000005 129.85999999999999 3231.3200000000006 128.90999999999997 3231.8000000000006C128.54999999999995 3231.9800000000005 128.14999999999998 3232.1300000000006 127.74999999999997 3232.2300000000005C127.51999999999997 3232.2900000000004 127.33999999999997 3232.3200000000006 127.24999999999997 3232.3400000000006C126.79999999999997 3232.4000000000005 126.48999999999997 3232.8100000000004 126.54999999999997 3233.2700000000004C126.59999999999997 3233.7300000000005 127.00999999999996 3234.0500000000006 127.45999999999997 3233.9900000000002C128.01999999999995 3233.92 128.81999999999996 3233.71 129.62999999999997 3233.3C131.07999999999996 3232.5600000000004 131.99999999999997 3231.4100000000003 131.99999999999997 3229.79C131.99999999999997 3227.77 130.71999999999997 3226.5 128.98999999999998 3226.04C129.02999999999997 3225.93 129.07 3225.81 129.1 3225.69C129.23 3225.25 128.98999999999998 3224.79 128.56 3224.65C128.13 3224.52 127.67 3224.77 127.54 3225.21C127.48 3225.42 127.41000000000001 3225.63 127.34 3225.84C126.85000000000001 3225.84 126.34 3225.9 125.83 3226.01C125.67 3226.05 125.5 3226.09 125.34 3226.13C125.17 3226.1800000000003 125 3226.23 124.83 3226.28ZM125.55 3227.8C125.75999999999999 3227.7400000000002 125.97 3227.69 126.17 3227.65C126.32000000000001 3227.61 126.47 3227.59 126.62 3227.57C126.21000000000001 3228.38 125.74000000000001 3229.1000000000004 125.24000000000001 3229.7000000000003C125.24000000000001 3229.6800000000003 125.24000000000001 3229.67 125.23 3229.6600000000003C125.09 3229.1400000000003 124.98 3228.59 124.91000000000001 3228.01C125.13000000000001 3227.9300000000003 125.34000000000002 3227.86 125.55000000000001 3227.8ZM123.67 3230.11C123.76 3230.4300000000003 123.85000000000001 3230.71 123.93 3230.94C122.88000000000001 3231.68 122.14 3231.66 121.79 3231.04C121.44000000000001 3230.41 121.72000000000001 3229.79 122.73 3229.09C122.92 3228.96 123.14 3228.82 123.36 3228.7000000000003C123.44 3229.19 123.54 3229.6600000000003 123.67 3230.11Z " fill="#4183d7" fill-opacity="1" transform="matrix(1,0,0,1,-113,-3211)"></path><path id="SvgjsPath1019" d="M148.01 3221.59L150.44 3229.4100000000003C150.57999999999998 3229.86 151.03 3230.11 151.45 3229.9600000000005C151.86999999999998 3229.8100000000004 152.1 3229.3200000000006 151.95999999999998 3228.8700000000003L148.76 3218.59C148.51999999999998 3217.8 147.48 3217.8 147.23999999999998 3218.59L144.04 3228.8700000000003C143.9 3229.32 144.13 3229.8100000000004 144.54999999999998 3229.9600000000005C144.96999999999997 3230.1100000000006 145.42 3229.8600000000006 145.55999999999997 3229.4100000000003L148.00999999999996 3221.59Z " fill="#4183d7" fill-opacity="1" transform="matrix(1,0,0,1,-113,-3211)"></path><path id="SvgjsPath1020" d="M145 3225L145 3224L150 3224L150 3225Z " fill="#4183d7" fill-opacity="1" transform="matrix(1,0,0,1,-113,-3211)"></path><path id="SvgjsPath1021" d="M132.84 3245.83C133.43 3246.2799999999997 134.25 3245.7599999999998 134.14000000000001 3245L133.45000000000002 3240.35L133.61 3240.2799999999997C138.68 3238.12 142 3233.47 142 3228.2599999999998C142 3220.91 135.48 3214.9999999999995 127.5 3214.9999999999995C119.52 3214.9999999999995 113 3220.9099999999994 113 3228.2599999999998C113 3235.39 119.14 3241.1899999999996 126.85 3241.4999999999995C126.85 3241.4999999999995 127.27 3241.5499999999997 127.28 3241.5499999999997ZM127.5 3216.72C134.63 3216.72 140.36 3221.9199999999996 140.36 3228.2599999999998C140.36 3232.74 137.48000000000002 3236.77 133.02 3238.68L132.57000000000002 3238.85C132.01000000000002 3239.0699999999997 131.69000000000003 3239.67 131.78000000000003 3240.27L132.21000000000004 3243.21L128.25000000000003 3240.16C127.97000000000003 3239.95 127.53000000000003 3239.79 127.18000000000004 3239.79L126.90000000000003 3239.7799999999997C120.04000000000003 3239.4999999999995 114.64000000000003 3234.3999999999996 114.64000000000003 3228.2599999999998C114.64000000000003 3221.9199999999996 120.37000000000003 3216.72 127.50000000000003 3216.72Z " fill="#4183d7" fill-opacity="1" transform="matrix(1,0,0,1,-113,-3211)"></path><path id="SvgjsPath1022" d="M138.34 3234.76C139.19 3235.3500000000004 140.12 3235.86 141.12 3236.28L141.29 3236.3500000000004L140.59 3241.0000000000005C140.47 3241.7600000000007 141.3 3242.2800000000007 141.9 3241.8300000000004L147.53 3237.55C147.54 3237.55 147.97 3237.5 147.97 3237.5C155.78 3237.19 162 3231.39 162 3224.26C162 3216.9100000000003 155.4 3211 147.31 3211C141.44 3211 136.35 3214.12 134 3218.64C134.5 3218.9 134.98 3219.19 135.44 3219.5099999999998C137.48 3215.52 142.01 3212.72 147.31 3212.72C154.53 3212.72 160.34 3217.9199999999996 160.34 3224.2599999999998C160.34 3230.3999999999996 154.87 3235.4999999999995 147.92000000000002 3235.7799999999997L147.64000000000001 3235.79C147.28 3235.79 146.84 3235.95 146.55 3236.16L142.54000000000002 3239.21L142.98000000000002 3236.27C143.07000000000002 3235.67 142.74 3235.07 142.18 3234.85L141.72 3234.68C140.83 3234.2999999999997 139.99 3233.8399999999997 139.23 3233.31C138.97 3233.81 138.67999999999998 3234.2999999999997 138.34 3234.7599999999998Z " fill="#4183d7" fill-opacity="1" transform="matrix(1,0,0,1,-113,-3211)"></path><path id="SvgjsPath1023" d="M124.83 3226.28C124.84 3225.7400000000002 124.88 3225.17 124.96 3224.5800000000004C126.02 3224.51 127.13 3224.3300000000004 128.25 3224.0900000000006C128.78 3223.9700000000007 129.28 3223.850000000001 129.73 3223.7200000000007C130 3223.6500000000005 130.2 3223.5900000000006 130.31 3223.5500000000006C130.74 3223.4100000000008 130.97 3222.9500000000007 130.84 3222.5100000000007C130.71 3222.060000000001 130.25 3221.8200000000006 129.82 3221.9600000000005C129.73 3221.9900000000007 129.54999999999998 3222.0400000000004 129.29999999999998 3222.1100000000006C128.88 3222.2300000000005 128.41 3222.3400000000006 127.90999999999998 3222.4500000000007C127.01999999999998 3222.6500000000005 126.12999999999998 3222.8000000000006 125.27999999999999 3222.8800000000006C125.34999999999998 3222.6200000000003 125.41999999999999 3222.3500000000004 125.49999999999999 3222.0800000000004C125.62999999999998 3221.6400000000003 125.38999999999999 3221.1700000000005 124.95999999999998 3221.0400000000004C124.52999999999997 3220.9000000000005 124.06999999999998 3221.1500000000005 123.93999999999998 3221.5900000000006C123.80999999999999 3222.0500000000006 123.68999999999998 3222.5100000000007 123.58999999999999 3222.9500000000007C122.80999999999999 3222.9300000000007 122.13 3222.830000000001 121.55999999999999 3222.6500000000005C121.12999999999998 3222.5100000000007 120.66999999999999 3222.7500000000005 120.53999999999999 3223.1900000000005C120.39999999999999 3223.6300000000006 120.63999999999999 3224.1000000000004 121.05999999999999 3224.2400000000007C121.72999999999999 3224.4600000000005 122.47999999999999 3224.580000000001 123.30999999999999 3224.6100000000006C123.21999999999998 3225.4100000000008 123.17999999999999 3226.1800000000007 123.19999999999999 3226.9200000000005C122.69999999999999 3227.1500000000005 122.21999999999998 3227.4200000000005 121.80999999999999 3227.7100000000005C120.18999999999998 3228.8400000000006 119.50999999999999 3230.3100000000004 120.37999999999998 3231.8700000000003C121.31999999999998 3233.57 123.24999999999999 3233.55 125.06999999999998 3232.1600000000003C126.35999999999999 3231.1700000000005 127.53999999999998 3229.57 128.39999999999998 3227.6200000000003C129.55999999999997 3227.8900000000003 130.36999999999998 3228.6500000000005 130.36999999999998 3229.7900000000004C130.36999999999998 3230.6700000000005 129.85999999999999 3231.3200000000006 128.90999999999997 3231.8000000000006C128.54999999999995 3231.9800000000005 128.14999999999998 3232.1300000000006 127.74999999999997 3232.2300000000005C127.51999999999997 3232.2900000000004 127.33999999999997 3232.3200000000006 127.24999999999997 3232.3400000000006C126.79999999999997 3232.4000000000005 126.48999999999997 3232.8100000000004 126.54999999999997 3233.2700000000004C126.59999999999997 3233.7300000000005 127.00999999999996 3234.0500000000006 127.45999999999997 3233.9900000000002C128.01999999999995 3233.92 128.81999999999996 3233.71 129.62999999999997 3233.3C131.07999999999996 3232.5600000000004 131.99999999999997 3231.4100000000003 131.99999999999997 3229.79C131.99999999999997 3227.77 130.71999999999997 3226.5 128.98999999999998 3226.04C129.02999999999997 3225.93 129.07 3225.81 129.1 3225.69C129.23 3225.25 128.98999999999998 3224.79 128.56 3224.65C128.13 3224.52 127.67 3224.77 127.54 3225.21C127.48 3225.42 127.41000000000001 3225.63 127.34 3225.84C126.85000000000001 3225.84 126.34 3225.9 125.83 3226.01C125.67 3226.05 125.5 3226.09 125.34 3226.13C125.17 3226.1800000000003 125 3226.23 124.83 3226.28ZM125.55 3227.8C125.75999999999999 3227.7400000000002 125.97 3227.69 126.17 3227.65C126.32000000000001 3227.61 126.47 3227.59 126.62 3227.57C126.21000000000001 3228.38 125.74000000000001 3229.1000000000004 125.24000000000001 3229.7000000000003C125.24000000000001 3229.6800000000003 125.24000000000001 3229.67 125.23 3229.6600000000003C125.09 3229.1400000000003 124.98 3228.59 124.91000000000001 3228.01C125.13000000000001 3227.9300000000003 125.34000000000002 3227.86 125.55000000000001 3227.8ZM123.67 3230.11C123.76 3230.4300000000003 123.85000000000001 3230.71 123.93 3230.94C122.88000000000001 3231.68 122.14 3231.66 121.79 3231.04C121.44000000000001 3230.41 121.72000000000001 3229.79 122.73 3229.09C122.92 3228.96 123.14 3228.82 123.36 3228.7000000000003C123.44 3229.19 123.54 3229.6600000000003 123.67 3230.11Z " fill="#4183d7" fill-opacity="1" transform="matrix(1,0,0,1,-113,-3211)"></path><path id="SvgjsPath1024" d="M148.01 3221.59L150.44 3229.4100000000003C150.57999999999998 3229.86 151.03 3230.11 151.45 3229.9600000000005C151.86999999999998 3229.8100000000004 152.1 3229.3200000000006 151.95999999999998 3228.8700000000003L148.76 3218.59C148.51999999999998 3217.8 147.48 3217.8 147.23999999999998 3218.59L144.04 3228.8700000000003C143.9 3229.32 144.13 3229.8100000000004 144.54999999999998 3229.9600000000005C144.96999999999997 3230.1100000000006 145.42 3229.8600000000006 145.55999999999997 3229.4100000000003L148.00999999999996 3221.59Z " fill="#4183d7" fill-opacity="1" transform="matrix(1,0,0,1,-113,-3211)"></path><path id="SvgjsPath1025" d="M145 3225L145 3224L150 3224L150 3225Z " fill="#4183d7" fill-opacity="1" transform="matrix(1,0,0,1,-113,-3211)"></path></svg>